<?xml version="1.0" encoding="UTF-8" standalone="no"?>
<svg
   xmlns:dc="http://purl.org/dc/elements/1.1/"
   xmlns:cc="http://creativecommons.org/ns#"
   xmlns:rdf="http://www.w3.org/1999/02/22-rdf-syntax-ns#"
   xmlns:svg="http://www.w3.org/2000/svg"
   xmlns="http://www.w3.org/2000/svg"
   xmlns:sodipodi="http://sodipodi.sourceforge.net/DTD/sodipodi-0.dtd"
   xmlns:inkscape="http://www.inkscape.org/namespaces/inkscape"
   inkscape:version="1.0 (4035a4f, 2020-05-01)"
   sodipodi:docname="weloveitlogo.svg"
   id="svg23"
   version="1.1"
   height="106pt"
   width="250pt"
   viewBox="0 0 250 106"
   style="isolation:isolate">
  <metadata
     id="metadata27">
    <rdf:RDF>
      <cc:Work
         rdf:about="">
        <dc:format>image/svg+xml</dc:format>
        <dc:type
           rdf:resource="http://purl.org/dc/dcmitype/StillImage" />
      </cc:Work>
    </rdf:RDF>
  </metadata>
  <sodipodi:namedview
     inkscape:current-layer="g21"
     inkscape:window-maximized="1"
     inkscape:window-y="23"
     inkscape:window-x="0"
     inkscape:cy="70.666667"
     inkscape:cx="166.66667"
     inkscape:zoom="2.535"
     showgrid="false"
     id="namedview25"
     inkscape:window-height="723"
     inkscape:window-width="1280"
     inkscape:pageshadow="2"
     inkscape:pageopacity="0"
     guidetolerance="10"
     gridtolerance="10"
     objecttolerance="10"
     borderopacity="1"
     bordercolor="#666666"
     pagecolor="#ffffff" />
  <defs
     id="defs13">
    <clipPath
       id="_clipPath_zm4jKqCkAplQpYVn7dNC5DqVd9y1tM6F">
      <rect
         id="rect10"
         height="106"
         width="250" />
    </clipPath>
  </defs>
  <g
     id="g21"
     clip-path="url(#_clipPath_zm4jKqCkAplQpYVn7dNC5DqVd9y1tM6F)">
    <text
       id="text15"
       style="font-style:normal;font-weight:400;font-size:62.5px;font-family:'Arial Rounded MT Bold';fill:#3b3b45;stroke:none"
       transform="translate(-0.882,75.98)"><tspan
         id="tspan29"
         style="fill:#ffffff">we</tspan></text>
    <text
       id="text17"
       style="font-style:normal;font-weight:400;font-size:62.5px;font-family:'Arial Rounded MT Bold';fill:#3b3b45;stroke:none"
       transform="translate(203,75.98)"><tspan
         id="tspan31"
         style="fill:#ffffff">it</tspan></text>
    <path
       id="path19"
       stroke-miterlimit="4"
       stroke-linecap="butt"
       stroke-linejoin="miter"
       stroke="rgb(254,0,78)"
       stroke-width="3"
       vector-effect="non-scaling-stroke"
       fill="rgb(254,0,78)"
       d=" M 144.966 101.5 C 143.414 101.5 141.917 100.938 140.751 99.916 C 136.346 96.065 132.1 92.446 128.354 89.253 L 128.334 89.237 C 117.35 79.876 107.865 71.792 101.265 63.829 C 93.888 54.927 90.452 46.487 90.452 37.266 C 90.452 28.307 93.524 20.043 99.101 13.993 C 104.745 7.871 112.489 4.5 120.91 4.5 C 127.203 4.5 132.967 6.49 138.04 10.413 C 140.6 12.394 142.921 14.818 144.966 17.645 C 147.011 14.818 149.331 12.394 151.892 10.413 C 156.966 6.49 162.729 4.5 169.023 4.5 C 177.442 4.5 185.188 7.871 190.831 13.993 C 196.409 20.043 199.48 28.307 199.48 37.266 C 199.48 46.487 196.044 54.927 188.667 63.829 C 182.067 71.792 172.583 79.875 161.601 89.235 C 157.847 92.432 153.594 96.057 149.18 99.918 C 148.014 100.938 146.517 101.5 144.966 101.5 L 144.966 101.5 Z  M 120.91 10.887 C 114.294 10.887 108.217 13.527 103.796 18.321 C 99.309 23.188 96.838 29.916 96.838 37.266 C 96.838 45.021 99.72 51.957 106.182 59.754 C 112.428 67.291 121.719 75.209 132.476 84.376 L 132.496 84.393 C 136.257 87.598 140.52 91.231 144.957 95.111 C 149.42 91.224 153.69 87.585 157.458 84.375 C 168.214 75.207 177.504 67.291 183.75 59.754 C 190.212 51.957 193.094 45.021 193.094 37.266 C 193.094 29.916 190.623 23.188 186.136 18.321 C 181.716 13.527 175.637 10.887 169.023 10.887 C 164.177 10.887 159.727 12.427 155.799 15.465 C 152.297 18.173 149.859 21.597 148.429 23.993 C 147.693 25.225 146.399 25.96 144.966 25.96 C 143.533 25.96 142.238 25.225 141.503 23.993 C 140.074 21.597 137.635 18.173 134.133 15.465 C 130.204 12.427 125.755 10.887 120.91 10.887 L 120.91 10.887 Z " />
  </g>
</svg>
